<?xml version="1.0" encoding="UTF-8"?>
<svg width="26px" height="29px" viewBox="0 0 26 29" version="1.1" xmlns="http://www.w3.org/2000/svg" xmlns:xlink="http://www.w3.org/1999/xlink">
    <title>大门@2x</title>
    <defs>
        <linearGradient x1="64.1816499%" y1="-3.96356243%" x2="35.2044%" y2="100%" id="linearGradient-1">
            <stop stop-color="#25B5FF" offset="0%"></stop>
            <stop stop-color="#4375FF" offset="100%"></stop>
        </linearGradient>
        <path d="M2.33333333,0 L7.97244346,0 C8.52472821,0 8.97244346,0.451199157 8.97244346,1.00778152 C8.97244346,1.5421006 8.55982909,1.9792985 8.03819374,2.01341942 L7.97244346,2.01556305 L2.33333333,2.01556305 C2.16339956,2.01556305 2.02316601,2.14371429 2.00259714,2.30935223 L2,2.35149022 L2,12.4293055 C2,12.6005616 2.12716173,12.7418864 2.29152071,12.7626153 L2.33333333,12.7652326 L7.97244346,12.7652326 C8.52472821,12.7652326 8.97244346,13.2164318 8.97244346,13.7730142 C8.97244346,14.3073332 8.55982909,14.7445311 8.03819374,14.7786521 L7.97244346,14.7807957 L2.33333333,14.7807957 C1.07463786,14.7807957 0.0487212127,13.7763956 0.00168490343,12.5195028 L0,12.4293055 L0,2.35149022 C0,1.08300018 0.996644656,0.049100338 2.24383247,0.00169801454 L2.33333333,0 L7.97244346,0 L2.33333333,0 Z M10.9032336,8.05798906 C11.4555183,8.05798906 11.9032336,8.50918822 11.9032336,9.06577058 C11.9032336,9.62235295 11.4555183,10.0735521 10.9032336,10.0735521 L6.59245449,10.0738082 L6.73371496,10.3246697 C7.00384771,10.8039601 6.84225381,11.4130249 6.37081183,11.6924905 C5.92859798,11.9546301 5.36477525,11.823727 5.0785947,11.4041038 L5.03396403,11.3322635 L5.03396403,11.3322635 L4.0721248,9.62639657 C3.96545697,9.46611226 3.90323357,9.27326449 3.90323357,9.06577058 C3.90323357,8.50918822 4.35094882,8.05798906 4.90323357,8.05798906 L10.9032336,8.05798906 Z M10.7278724,3.40321472 L10.7725031,3.47505499 L10.7725031,3.47505499 L11.7343424,5.18092194 C11.8410102,5.34120626 11.9032336,5.53405403 11.9032336,5.74154793 C11.9032336,6.2981303 11.4555183,6.74932946 10.9032336,6.74932946 L4.90323357,6.74932946 C4.35094882,6.74932946 3.90323357,6.2981303 3.90323357,5.74154793 C3.90323357,5.18496556 4.35094882,4.73376641 4.90323357,4.73376641 L9.21401266,4.73351031 L9.07275219,4.48264879 C8.80261943,4.00335842 8.96421334,3.39429365 9.43565531,3.114828 C9.87786917,2.85268845 10.4416919,2.98359151 10.7278724,3.40321472 L10.7278724,3.40321472 Z" id="path-2"></path>
        <filter x="-75.6%" y="-40.6%" width="251.2%" height="221.8%" filterUnits="objectBoundingBox" id="filter-3">
            <feOffset dx="0" dy="3" in="SourceAlpha" result="shadowOffsetOuter1"></feOffset>
            <feGaussianBlur stdDeviation="2.5" in="shadowOffsetOuter1" result="shadowBlurOuter1"></feGaussianBlur>
            <feColorMatrix values="0 0 0 0 0   0 0 0 0 0.73347199   0 0 0 0 0.975666106  0 0 0 0.25 0" type="matrix" in="shadowBlurOuter1"></feColorMatrix>
        </filter>
    </defs>
    <g id="页面-1" stroke="none" stroke-width="1" fill="none" fill-rule="evenodd">
        <g id="poi" transform="translate(-43.000000, -183.000000)">
            <g id="大门" transform="translate(44.000000, 184.000000)">
                <g id="编组-17备份-3-copy" fill="url(#linearGradient-1)" stroke="#FFFFFF" stroke-width="0.883970657">
                    <g id="交通-BG备份">
                        <path d="M12.0677966,-0.441985329 C15.4781493,-0.441985329 18.5798442,0.979110315 20.8253436,3.28634281 C23.0563774,5.57871189 24.4419853,8.74604626 24.4419853,12.2602423 C24.4419853,15.1180476 23.4885103,17.761819 21.889035,19.8793008 C20.2649811,22.0293211 17.9748655,23.6362545 15.3413543,24.375305 C14.4680496,24.9583916 13.7569964,25.7803158 13.289263,26.7691471 C12.9596877,27.1347997 12.8142035,27.0500968 12.6626687,26.9593646 C10.8330842,25.8638926 10.1947372,25.1308841 9.49185835,24.5570342 C6.64321021,23.9595515 4.15776253,22.3903426 2.38550996,20.2156854 C0.616526451,18.0450396 -0.441985329,15.2714582 -0.441985329,12.2602423 C-0.441985329,8.73746141 0.950289169,5.56324669 3.20819997,3.26932887 C5.46861396,0.972867952 8.59678609,-0.441985329 12.0677966,-0.441985329 Z" id="合并形状"></path>
                    </g>
                </g>
                <g id="ic_ditiekou_normal备份-5" transform="translate(4.000000, 4.000000)">
                    <rect id="矩形" x="0" y="0" width="16" height="16"></rect>
                    <g id="形状" transform="translate(2.430748, 0.725000)">
                        <use fill="black" fill-opacity="1" filter="url(#filter-3)" xlink:href="#path-2"></use>
                        <use fill="#FFFFFF" fill-rule="evenodd" xlink:href="#path-2"></use>
                    </g>
                </g>
            </g>
        </g>
    </g>
</svg>