<?xml version="1.0" encoding="UTF-8"?>
<svg width="40px" height="45px" viewBox="0 0 40 45" version="1.1" xmlns="http://www.w3.org/2000/svg" xmlns:xlink="http://www.w3.org/1999/xlink">
    <title>教育-选中@2x</title>
    <defs>
        <linearGradient x1="63.8378651%" y1="-3.96356243%" x2="35.5630678%" y2="100%" id="linearGradient-1">
            <stop stop-color="#FF8B8B" offset="0%"></stop>
            <stop stop-color="#FB2222" offset="100%"></stop>
        </linearGradient>
    </defs>
    <g id="页面-1" stroke="none" stroke-width="1" fill="none" fill-rule="evenodd">
        <g id="poi" transform="translate(-214.000000, -301.000000)">
            <g id="交通-BG备份" transform="translate(216.000000, 303.000000)">
                <path d="M18.1016949,-0.75 C23.2424386,-0.75 27.9185161,1.41763185 31.3035752,4.9386925 C34.6628175,8.43289896 36.75,13.260561 36.75,18.617405 C36.75,22.9747579 35.3132252,27.005523 32.9037506,30.2336075 C30.4581453,33.5100981 27.0104875,35.9588448 23.0467494,37.0871344 C21.7563862,37.9660196 20.7061746,39.1986987 20.0140587,40.6799675 C19.8457056,41.0137287 19.6081454,41.2755308 19.324284,41.4584465 C19.0349281,41.6449028 18.6981659,41.75 18.3452248,41.75 C17.9331275,41.75 17.5421081,41.6065177 17.2245854,41.3577319 C16.9337142,41.1298282 16.7058556,40.8134796 16.5834416,40.4464133 C15.9572464,39.1848097 15.1569109,38.1657415 14.1967617,37.3635349 C9.91294582,36.4482008 6.1749688,34.057168 3.50845444,30.7449413 C0.844525768,27.4359265 -0.75,23.2079173 -0.75,18.617405 C-0.75,13.2473711 1.34729478,8.40914892 4.7470644,4.9125212 C8.15432941,1.40818456 12.8698578,-0.75 18.1016949,-0.75 Z" id="合并形状" stroke="#FFFFFF" stroke-width="1.5" fill="url(#linearGradient-1)"></path>
                <g id="学校_icon" transform="translate(6.000000, 6.000000)" fill-rule="nonzero">
                    <rect x="3.8043936e-08" y="0" width="24" height="24"></rect>
                    <path d="M5.85110953,12.626456 C5.85110953,12.626456 11.2595778,15.1554702 11.2595778,15.1554702 C11.9186378,15.4389217 12.6768775,15.4389217 13.3359375,15.1554702 C13.3359375,15.1554702 18.164218,12.9185725 18.164218,12.9185725 C18.6608372,12.6884895 19.2253771,13.0571839 19.2254372,13.6116558 L19.2259379,18.0502041 L19.2259379,18.0502041 C19.2259379,18.9766233 18.6405773,19.8151543 17.7346974,20.1864533 C17.7346974,20.1864533 13.9452772,21.9252763 13.9452772,21.9252763 C12.6735578,22.4465095 11.2272973,22.4465095 9.95559742,21.9252763 C9.95559742,21.9252763 6.2787216,20.1864533 6.2787216,20.1864533 C5.37284556,19.8151543 4.78749755,18.9766233 4.78749755,18.0502041 L4.78749755,13.3185113 L4.78749755,13.3185113 C4.78749755,12.7628448 5.35420957,12.3941036 5.85110953,12.626456 Z M13.9274597,2.35368909 L13.971251,2.37369137 C14.6623139,2.68934387 23.3006,6.63500012 23.3006,6.63500012 C23.9183998,6.91715161 24.1749992,7.61507458 23.8738002,8.19386283 C23.7521991,8.42782423 23.5503997,8.61688688 23.3006,8.73094194 C23.3006,8.73094194 14.6623139,12.6766023 13.971251,12.9922551 L13.9274597,13.0122574 L13.9274597,13.0122574 C12.9223804,13.4713219 11.7505998,13.4841007 10.7343998,13.0470589 C10.7343998,13.0470589 1.67850005,9.15321423 1.67850005,9.15321423 L1.67865598,14.7368387 L1.67865598,14.7368387 C1.67865598,15.1660996 1.30725407,15.5140763 0.849108039,15.5140763 C0.390962034,15.5140763 0.0195598177,15.1660996 0.0195598177,14.7368387 L0.0190002702,13.7151953 C0.0189628333,13.6468416 0.0189239851,13.5759111 0.0188838742,13.502675 L0.018057589,11.9940116 C0.0180076731,11.9028733 0.0179573859,11.811057 0.0179068758,11.7188337 L0.0170057169,10.0734629 C0.0169578809,9.98612213 0.0169107134,9.90000191 0.016864363,9.81537354 L0.01606207,8.35051613 C0.016034438,8.30006461 0.016008663,8.25300364 0.0159848936,8.20960447 L0.0157973378,7.86715795 L0.0157973378,7.86715795 C-0.0220051628,7.64707247 0.00703571817,7.41443148 0.113746241,7.1966216 C0.237930044,6.94313597 0.454990029,6.73975081 0.725536048,6.6233998 C0.725536048,6.6233998 10.7343998,2.31887319 10.7343998,2.31887319 C11.7505998,1.88183404 12.9223804,1.8946105 13.9274597,2.35368909 Z" id="形状" fill="#FFFFFF"></path>
                </g>
            </g>
        </g>
    </g>
</svg>